HIERARCHY
ROOT Hips
{
	OFFSET	0.00	0.00	0.00
	CHANNELS 6 Xposition Yposition Zposition Zrotation Xrotation Yrotation
	JOINT LeftUpLeg
	{
		OFFSET	 0.126116	-0.014019	-0.065224
		CHANNELS 3 Zrotation Xrotation Yrotation
		JOINT LeftLeg
		{
			OFFSET	 0.000000	 0.000000	 0.569914
			CHANNELS 3 Zrotation Xrotation Yrotation
			JOINT LeftFoot
			{
				OFFSET	 0.000000	 0.000000	 0.544423
				CHANNELS 3 Zrotation Xrotation Yrotation
				JOINT LeftToeBase
				{
					OFFSET	 0.000000	 0.000000	 0.207117
					CHANNELS 3 Zrotation Xrotation Yrotation
					End Site
					{
						OFFSET	 0.000000	 0.000000	 0.207117
					}
				}
			}
		}
	}
	JOINT RightUpLeg
	{
		OFFSET	-0.124023	-0.008373	-0.065224
		CHANNELS 3 Zrotation Xrotation Yrotation
		JOINT RightLeg
		{
			OFFSET	 0.000000	 0.000000	 0.570047
			CHANNELS 3 Zrotation Xrotation Yrotation
			JOINT RightFoot
			{
				OFFSET	 0.000000	 0.000000	 0.544354
				CHANNELS 3 Zrotation Xrotation Yrotation
				JOINT RightToeBase
				{
					OFFSET	 0.000000	 0.000000	 0.207540
					CHANNELS 3 Zrotation Xrotation Yrotation
					End Site
					{
						OFFSET	 0.000000	 0.000000	 0.207540
					}
				}
			}
		}
	}
	JOINT Spine
	{
		OFFSET	 0.000184	-0.007763	 0.117403
		CHANNELS 3 Zrotation Xrotation Yrotation
		JOINT Spine1
		{
			OFFSET	 0.000000	 0.000000	 0.137269
			CHANNELS 3 Zrotation Xrotation Yrotation
			JOINT Spine2
			{
				OFFSET	 0.000000	 0.000000	 0.156879
				CHANNELS 3 Zrotation Xrotation Yrotation
				JOINT LeftShoulder
				{
					OFFSET	 0.080501	-0.002496	 0.160144
					CHANNELS 3 Zrotation Xrotation Yrotation
					JOINT LeftArm
					{
						OFFSET	 0.000000	 0.000000	 0.164363
						CHANNELS 3 Zrotation Xrotation Yrotation
						JOINT LeftForeArm
						{
							OFFSET	 0.000000	 0.000000	 0.364576
							CHANNELS 3 Zrotation Xrotation Yrotation
							JOINT LeftHand
							{
								OFFSET	 0.000000	 0.000000	 0.360812
								CHANNELS 3 Zrotation Xrotation Yrotation
								JOINT LeftHandIndex1
								{
									OFFSET	 0.000000	 0.000000	 0.086006
									CHANNELS 3 Zrotation Xrotation Yrotation
									JOINT LeftHandIndex2
									{
										OFFSET	 0.000000	 0.000000	 0.047236
										CHANNELS 3 Zrotation Xrotation Yrotation
										JOINT LeftHandIndex3
										{
											OFFSET	-0.004284	-0.000551	 0.038166
											CHANNELS 3 Zrotation Xrotation Yrotation
											End Site
											{
												OFFSET	-0.004284	-0.000551	 0.038166
											}
										}
									}
								}
							}
						}
					}
				}
				JOINT Neck
				{
					OFFSET	 0.000000	 0.000000	 0.176489
					CHANNELS 3 Zrotation Xrotation Yrotation
					JOINT Head
					{
						OFFSET	 0.000000	-0.001747	 0.077940
						CHANNELS 3 Zrotation Xrotation Yrotation
						End Site
						{
							OFFSET	 0.000000	-0.001747	 0.077940
						}
					}
				}
				JOINT RightShoulder
				{
					OFFSET	-0.080363	 0.000306	 0.159706
					CHANNELS 3 Zrotation Xrotation Yrotation
					JOINT RightArm
					{
						OFFSET	 0.000000	 0.000000	 0.164196
						CHANNELS 3 Zrotation Xrotation Yrotation
						JOINT RightForeArm
						{
							OFFSET	 0.000000	 0.000000	 0.365611
							CHANNELS 3 Zrotation Xrotation Yrotation
							JOINT RightHand
							{
								OFFSET	 0.000000	 0.000000	 0.360648
								CHANNELS 3 Zrotation Xrotation Yrotation
								JOINT RightHandIndex1
								{
									OFFSET	 0.000000	 0.000000	 0.069977
									CHANNELS 3 Zrotation Xrotation Yrotation
									JOINT RightHandIndex2
									{
										OFFSET	 0.000000	 0.000000	 0.052305
										CHANNELS 3 Zrotation Xrotation Yrotation
										JOINT RightHandIndex3
										{
											OFFSET	 0.009002	-0.000782	 0.042196
											CHANNELS 3 Zrotation Xrotation Yrotation
											End Site
											{
												OFFSET	 0.009002	-0.000782	 0.042196
											}
										}
									}
								}
							}
						}
					}
				}
			}
		}
	}
}
MOTION
Frames:    9
Frame Time: 0.03333334
 0.000164	 0.049022	 1.266765	-0.043557	 3.213511	 0.828644	 22.324700	-10.841360	 176.744700	 2.234710	-18.805160	 0.855183	 1.649003	 72.726750	-1.863445	-2.385833	 28.452750	 0.000004	-15.029020	-9.911784	-177.828400	-0.663891	-16.951900	 1.309368	 5.095499	 71.744730	 1.289767	 2.384659	 28.388700	-0.000001	-5.742578	 7.945761	-0.449397	 1.468386	-7.559343	 0.360152	-3.860584	 11.996450	 0.935899	-90.996690	 68.624220	-177.446900	-6.390514	-0.432056	-26.124320	 21.467450	 0.082142	-2.754892	-7.127977	-12.100950	-4.537065	-2.027600	 6.559038	 9.033609	-5.188889	 0.308190	 3.541030	-5.234859	 0.342567	 0.430617	 4.695225	 20.897960	-7.665901	-8.936672	-15.587400	 1.589828	 88.766240	 66.993000	 176.890200	 9.177463	 9.723315	 16.676470	-23.819980	-3.647932	 15.250140	 4.071742	-11.542590	 5.679123	 1.803333	 3.979147	-15.098590	 4.898592	 3.004813	-9.310344	 5.224449	 0.395017	 2.014677
-0.000495	 0.056275	 1.260463	 0.041931	 4.220412	 0.970264	 23.400710	-14.058360	 177.113600	 2.272998	-22.299360	 1.034611	 4.640669	 74.095030	-5.157420	-2.385833	 28.452750	 0.000004	-16.482470	-13.056860	-178.585100	-0.565486	-20.507200	 1.607773	 3.522930	 73.248810	 3.088664	 2.384659	 28.388700	-0.000001	-10.974690	 8.669460	-0.514790	 1.492112	-9.138390	 0.330927	-4.007771	 14.445030	 1.162204	-90.864160	 67.704280	-177.191600	-5.246058	 0.607103	-29.190060	 18.111910	 0.400669	-4.233982	-5.953597	-13.542360	-5.232670	-2.027600	 6.559038	 9.033609	-5.188889	 0.308190	 3.541030	-5.234859	 0.342567	 0.430617	 4.744033	 23.710890	-8.476475	-8.669257	-17.629350	 1.454493	 88.510660	 65.215100	 176.472900	 7.594437	 11.374670	 19.940070	-21.199950	-2.186103	 14.664100	 2.446038	-12.185070	 5.327325	 1.803333	 3.979147	-15.098590	 4.898592	 3.004813	-9.310344	 5.224449	 0.395017	 2.014677
-0.001846	 0.072526	 1.249896	 0.216349	 6.395727	 1.230664	 25.324290	-20.001010	 178.191900	 2.407446	-27.891980	 1.321916	 12.689170	 75.922260	-13.916690	-2.385832	 28.452790	-0.000001	-19.267660	-18.463220	 179.684000	-0.993614	-25.407520	 1.804236	-1.297927	 75.114110	 9.056354	 2.384659	 28.388700	-0.000001	-19.190930	 9.827277	-0.686504	 1.592793	-10.186450	 0.276031	-4.411554	 17.277040	 1.450375	-90.840530	 65.632510	-177.436600	-3.340351	 1.522457	-34.259840	 10.904050	 1.274972	-6.683442	-5.682011	-15.589160	-7.096512	-2.027600	 6.559038	 9.033609	-5.188889	 0.308190	 3.541030	-5.234859	 0.342567	 0.430617	 4.289751	 26.451890	-8.830625	-8.301237	-19.694760	 1.038420	 88.385030	 62.012610	 176.625300	 3.873285	 13.016910	 23.633990	-15.714360	-0.289912	 17.324200	 0.071340	-12.875990	 5.571049	 1.803333	 3.979147	-15.098590	 4.898592	 3.004813	-9.310344	 5.224449	 0.395017	 2.014677
-0.002590	 0.094206	 1.239417	 0.645263	 9.437734	 1.301542	 27.211440	-26.342640	-179.651400	 2.375644	-32.266040	 1.491460	 24.076570	 76.059100	-26.354560	-2.385833	 28.452760	 0.000004	-22.289100	-24.581710	 177.386500	-1.140216	-29.426770	 1.970656	-10.177880	 75.956070	 19.330820	 2.384659	 28.388700	-0.000001	-26.383280	 10.666730	-0.846422	 1.780297	-11.267160	 0.274348	-4.845292	 19.159970	 1.851389	-91.743090	 64.784950	-179.913000	-1.785216	 3.542921	-36.597190	 4.733566	 2.532413	-9.003267	-5.983514	-16.530660	-9.061958	-2.027600	 6.559038	 9.033609	-5.188889	 0.308190	 3.541030	-5.234859	 0.342567	 0.430617	 3.569190	 26.824850	-8.758103	-7.906304	-20.339990	 0.729470	 89.222850	 60.774770	 178.706700	-0.471089	 15.484790	 24.091770	-10.605370	 1.842502	 22.161930	-1.904492	-13.481920	 5.974349	 1.803333	 3.979147	-15.098590	 4.898592	 3.004813	-9.310344	 5.224449	 0.395017	 2.014677
-0.004689	 0.119411	 1.228473	 1.201625	 13.216590	 1.281419	 29.058660	-32.926940	-176.743800	 2.732987	-35.845260	 1.845580	 35.974280	 75.113290	-40.000050	-2.385832	 28.452790	-0.000001	-25.473510	-31.175400	 174.397500	-1.125659	-33.279430	 2.208736	-22.777850	 76.234760	 33.590500	 2.384659	 28.388700	-0.000001	-31.644010	 11.387430	-0.863973	 1.838168	-11.193810	 0.029489	-5.111524	 19.659110	 2.400468	-92.888950	 65.183370	 177.017900	-1.162504	 5.924271	-37.811490	 0.978590	 4.001314	-10.986620	-5.473201	-16.904370	-9.869551	-2.027600	 6.559038	 9.033609	-5.188889	 0.308190	 3.541030	-5.234859	 0.342567	 0.430617	 2.974313	 24.957360	-8.916168	-7.491050	-19.673940	 0.367681	 90.398750	 60.318390	-178.595400	-4.728742	 18.209640	 23.994160	-5.813927	 4.752459	 29.037000	-2.502308	-14.220700	 6.412905	 1.803333	 3.979147	-15.098590	 4.898592	 3.004813	-9.310344	 5.224449	 0.395017	 2.014677
-0.009450	 0.145722	 1.223497	 2.857803	 18.614870	 1.216458	 28.764430	-39.805410	-173.537100	 3.881667	-36.699080	 2.571763	 39.389850	 71.712680	-46.125020	-2.385833	 28.452760	 0.000004	-29.371520	-37.624820	 170.259100	-0.833511	-35.026860	 2.478496	-33.302860	 74.399690	 45.758770	 2.384659	 28.388700	-0.000001	-34.994030	 11.357820	-0.938188	 1.230539	-10.113210	-0.151196	-5.375503	 18.447490	 2.006803	-93.850140	 65.569080	 174.339100	-0.587011	 6.879678	-38.325390	-2.426295	 5.599391	-12.649320	-4.953662	-16.686650	-10.433130	-2.027600	 6.559038	 9.033609	-5.188889	 0.308190	 3.541030	-5.234859	 0.342567	 0.430617	 2.499606	 24.139440	-7.932815	-7.279411	-19.802560	-0.302331	 91.557970	 60.912800	-175.875400	-8.745435	 20.604130	 24.262010	-2.708584	 8.449988	 37.783450	-2.800583	-14.267480	 7.106878	 1.803333	 3.979147	-15.098590	 4.898592	 3.004813	-9.310344	 5.224449	 0.395017	 2.014677
-0.014717	 0.169380	 1.221631	 4.185557	 22.364810	 0.905237	 26.950350	-44.775740	-171.775000	 4.474082	-36.476590	 2.912018	 41.008240	 69.492310	-49.413980	-2.385833	 28.452750	 0.000004	-31.021280	-42.317850	 167.485700	-1.355398	-35.535170	 2.205404	-37.959370	 72.717220	 52.102490	 2.384659	 28.388700	-0.000001	-35.644230	 11.771010	-1.047327	 0.788102	-6.821046	-0.469122	-5.468168	 16.844320	 1.556313	-94.433120	 66.927830	 172.203800	-1.010831	 7.701581	-40.110490	-5.164738	 7.187014	-13.974630	-4.752373	-16.981530	-10.905370	-2.027600	 6.559038	 9.033609	-5.188889	 0.308190	 3.541030	-5.234859	 0.342567	 0.430617	 1.951156	 23.331480	-6.575885	-7.146300	-20.090680	-1.211260	 92.430050	 61.928740	-173.627700	-10.906980	 22.567800	 27.139240	-1.007105	 12.053580	 43.927530	-2.220525	-14.433210	 7.927049	 1.803333	 3.979147	-15.098590	 4.898592	 3.004813	-9.310344	 5.224449	 0.395017	 2.014677
-0.019252	 0.199041	 1.214767	 3.873227	 24.747980	 0.708164	 27.107470	-49.357600	-169.758500	 4.498946	-37.156200	 2.973545	 41.459050	 67.199960	-51.095700	-2.385833	 28.452750	 0.000004	-30.249700	-47.506870	 165.627600	-1.903582	-36.597500	 1.934596	-37.767310	 70.172880	 53.955860	 2.384659	 28.388700	-0.000001	-32.686200	 12.757800	-1.148432	 1.127275	-3.165535	-0.672758	-5.093847	 15.950110	 1.646469	-94.511430	 69.999630	 170.045600	-2.605426	 8.658460	-42.645080	-8.062473	 8.880580	-15.129450	-5.398225	-18.481960	-11.396960	-2.027600	 6.559038	 9.033609	-5.188889	 0.308190	 3.541030	-5.234859	 0.342567	 0.430617	 1.170122	 21.711970	-5.990069	-6.669567	-20.146450	-1.646591	 93.027700	 63.973420	-171.520800	-11.053350	 24.592160	 30.571620	 0.484324	 16.142960	 49.310830	 0.411709	-15.815390	 9.471553	 1.803333	 3.979147	-15.098590	 4.898592	 3.004813	-9.310344	 5.224449	 0.395017	 2.014677
-0.021608	 0.221350	 1.206815	 3.716384	 27.034530	-0.224721	 28.290040	-52.727510	-166.762800	 4.986384	-37.256580	 3.277003	 41.697340	 65.470910	-52.520620	-2.385833	 28.452750	 0.000004	-28.389780	-52.362780	 165.573300	-3.688142	-37.325740	 0.884250	-34.246020	 67.703240	 53.401210	 2.384659	 28.388700	-0.000001	-27.016600	 13.365630	-1.522610	 1.606653	 0.150380	-0.034312	-4.918354	 15.160860	 1.236836	-95.084330	 69.694990	 168.275800	-5.005186	 7.086249	-44.516450	-10.547330	 10.153200	-15.850900	-6.509079	-19.898520	-11.842090	-2.027600	 6.559038	 9.033609	-5.188889	 0.308190	 3.541030	-5.234859	 0.342567	 0.430617	 0.072393	 22.669910	-4.071978	-6.579651	-22.237960	-3.377839	 93.552640	 65.143460	-169.600100	-10.654770	 24.282800	 33.871050	 2.312444	 19.123280	 50.621930	 2.771361	-16.645620	 10.868420	 1.803333	 3.979147	-15.098590	 4.898592	 3.004813	-9.310344	 5.224449	 0.395017	 2.014677
